<?xml version="1.0" encoding="utf-8"?>
<!-- Generator: Adobe Illustrator 17.0.0, SVG Export Plug-In . SVG Version: 6.00 Build 0)  -->
<!DOCTYPE svg PUBLIC "-//W3C//DTD SVG 1.1//EN" "http://www.w3.org/Graphics/SVG/1.1/DTD/svg11.dtd">
<svg version="1.1" xmlns="http://www.w3.org/2000/svg" xmlns:xlink="http://www.w3.org/1999/xlink" x="0px" y="0px" width="16px"
	 height="16px" viewBox="0 0 16 16" enable-background="new 0 0 16 16" xml:space="preserve">
<g id="Layer_3" display="none">
	<rect x="-60" y="-80" display="inline" fill-rule="evenodd" clip-rule="evenodd" fill="#D7D8CE" width="100" height="140"/>
</g>
<g id="Layer_1">
	<g>
		<g>
			<path d="M8.932,7.008c0.189-0.15,0.283-0.393,0.283-0.73c0-0.186-0.032-0.341-0.094-0.46c-0.063-0.119-0.147-0.213-0.252-0.28
				C8.764,5.471,8.644,5.424,8.507,5.397C8.371,5.371,8.23,5.358,8.083,5.358h-1.36v1.874h1.486
				C8.502,7.232,8.743,7.157,8.932,7.008z M8.334,8.433H6.723v2.198h1.581c0.161,0,0.314-0.017,0.461-0.051
				c0.147-0.033,0.276-0.089,0.388-0.168c0.112-0.078,0.201-0.185,0.267-0.319c0.067-0.135,0.1-0.307,0.1-0.517
				c0-0.41-0.108-0.704-0.325-0.881C8.977,8.521,8.691,8.433,8.334,8.433z M12,1H4C2,1,1,2,1,4v8c0,2,1,3,3,3h8c2,0,3-1,3-3V4
				C15,2,14,1,12,1z M11.033,10.727c-0.146,0.295-0.344,0.537-0.592,0.724c-0.248,0.186-0.531,0.325-0.849,0.415
				C9.275,11.955,8.948,12,8.613,12H5V4h3.508C8.864,4,9.19,4.023,9.483,4.091c0.293,0.067,0.544,0.178,0.754,0.331
				c0.209,0.153,0.372,0.357,0.487,0.611c0.115,0.254,0.173,0.568,0.173,0.942c0,0.403-0.085,0.74-0.256,1.01
				c-0.171,0.268-0.424,0.489-0.76,0.661c0.461,0.143,0.805,0.392,1.032,0.746c0.227,0.355,0.34,0.784,0.34,1.285
				C11.253,10.082,11.18,10.432,11.033,10.727z"/>
		</g>
	</g>
</g>
<g id="Layer_2">
</g>
</svg>
