<?xml version="1.0" encoding="utf-8"?>
<!-- Generator: Adobe Illustrator 17.0.0, SVG Export Plug-In . SVG Version: 6.00 Build 0)  -->
<!DOCTYPE svg PUBLIC "-//W3C//DTD SVG 1.1//EN" "http://www.w3.org/Graphics/SVG/1.1/DTD/svg11.dtd">
<svg version="1.1" xmlns="http://www.w3.org/2000/svg" xmlns:xlink="http://www.w3.org/1999/xlink" x="0px" y="0px" width="16px"
	 height="16px" viewBox="0 0 16 16" enable-background="new 0 0 16 16" xml:space="preserve">
<g id="Layer_3" display="none">
	<rect x="-60" y="-120" display="inline" fill-rule="evenodd" clip-rule="evenodd" fill="#D7D8CE" width="100" height="140"/>
</g>
<g id="Layer_1">
</g>
<g id="Layer_2">
	<g>
		<g>
			<path fill-rule="evenodd" clip-rule="evenodd" d="M8,6.107c0.888,0,1.607-0.72,1.607-1.607c0-0.888-0.72-1.607-1.607-1.607
				S6.393,3.612,6.393,4.5C6.393,5.388,7.112,6.107,8,6.107z M13,0H3C1,0,0,1,0,3v10c0,2,1,3,3,3h10c2,0,3-1,3-3V3C16,1,15,0,13,0z
				 M8,0.75c2.071,0,3.75,1.679,3.75,3.75c0,2.071-1.679,3.75-3.75,3.75S4.25,6.571,4.25,4.5C4.25,2.429,5.929,0.75,8,0.75z
				 M11.826,13.384c0.419,0.419,0.419,1.097,0,1.515c-0.209,0.209-0.483,0.314-0.758,0.314c-0.274,0-0.548-0.105-0.758-0.314
				L8,12.589l-2.311,2.31c-0.419,0.419-1.097,0.419-1.515,0s-0.419-1.097,0-1.515l2.183-2.183c-1.303-0.387-2.288-1.074-2.337-1.11
				c-0.473-0.355-0.569-1.026-0.214-1.5c0.354-0.472,1.022-0.568,1.496-0.217C5.333,8.396,6.703,9.32,8,9.32
				c1.31,0,2.682-0.934,2.693-0.943c0.474-0.355,1.146-0.258,1.5,0.213c0.355,0.474,0.259,1.146-0.214,1.5
				c-0.048,0.036-1.034,0.723-2.337,1.11L11.826,13.384z"/>
		</g>
	</g>
</g>
</svg>
