<?xml version="1.0" encoding="utf-8"?>
<!-- Generator: Adobe Illustrator 17.0.0, SVG Export Plug-In . SVG Version: 6.00 Build 0)  -->
<!DOCTYPE svg PUBLIC "-//W3C//DTD SVG 1.1//EN" "http://www.w3.org/Graphics/SVG/1.1/DTD/svg11.dtd">
<svg version="1.1" xmlns="http://www.w3.org/2000/svg" xmlns:xlink="http://www.w3.org/1999/xlink" x="0px" y="0px" width="16px"
	 height="16px" viewBox="0 0 16 16" enable-background="new 0 0 16 16" xml:space="preserve">
<g id="Layer_3" display="none">
	<rect x="-60" y="-80" display="inline" fill-rule="evenodd" clip-rule="evenodd" fill="#D7D8CE" width="100" height="140"/>
</g>
<g id="Layer_1">
	<g>
		<g>
			<path d="M13,0H3C1,0,0,1,0,3v10c0,2,1,3,3,3h10c2,0,3-1,3-3V3C16,1,15,0,13,0z M13.452,11.394l-1.603,0.022
				c0,0-0.344,0.068-0.798-0.243c-0.599-0.411-1.165-1.481-1.605-1.342C9,9.974,9.014,10.936,9.014,10.936s0.003,0.206-0.099,0.315
				c-0.111,0.119-0.327,0.143-0.327,0.143H7.871c0,0-1.583,0.095-2.976-1.356c-1.52-1.583-2.862-4.723-2.862-4.723
				S1.955,5.109,2.039,5.01C2.134,4.898,2.391,4.89,2.391,4.89l1.715-0.011c0,0,0.162,0.027,0.277,0.112
				c0.095,0.07,0.149,0.201,0.149,0.201s0.277,0.701,0.644,1.335c0.716,1.238,1.05,1.508,1.293,1.376
				c0.354-0.193,0.248-1.75,0.248-1.75s0.006-0.565-0.178-0.817C6.395,5.142,6.125,5.085,6.006,5.069
				C5.91,5.056,6.068,4.832,6.273,4.732c0.309-0.151,0.853-0.16,1.497-0.153c0.502,0.005,0.646,0.036,0.842,0.084
				c0.591,0.143,0.391,0.694,0.391,2.016c0,0.423-0.076,1.019,0.229,1.216c0.131,0.085,0.453,0.013,1.256-1.352
				c0.381-0.647,0.666-1.407,0.666-1.407s0.062-0.136,0.159-0.194c0.099-0.059,0.233-0.041,0.233-0.041l1.804-0.011
				c0,0,0.542-0.065,0.63,0.18c0.092,0.257-0.203,0.857-0.94,1.839c-1.21,1.613-1.345,1.462-0.34,2.395
				c0.96,0.891,1.159,1.325,1.192,1.379C14.291,11.343,13.452,11.394,13.452,11.394z"/>
		</g>
	</g>
</g>
<g id="Layer_2">
</g>
</svg>
