<?xml version="1.0" encoding="utf-8"?>
<!-- Generator: Adobe Illustrator 17.0.0, SVG Export Plug-In . SVG Version: 6.00 Build 0)  -->
<!DOCTYPE svg PUBLIC "-//W3C//DTD SVG 1.1//EN" "http://www.w3.org/Graphics/SVG/1.1/DTD/svg11.dtd">
<svg version="1.1" xmlns="http://www.w3.org/2000/svg" xmlns:xlink="http://www.w3.org/1999/xlink" x="0px" y="0px" width="16px"
	 height="16px" viewBox="0 0 16 16" enable-background="new 0 0 16 16" xml:space="preserve">
<g id="Layer_3" display="none">
	<rect x="-60" y="-60" display="inline" fill-rule="evenodd" clip-rule="evenodd" fill="#D7D8CE" width="100" height="140"/>
</g>
<g id="Layer_1">
	<g>
		<g>
			<polygon fill-rule="evenodd" clip-rule="evenodd" points="15,7 13,7 13,5 12,5 12,7 10,7 10,8 12,8 12,10 13,10 13,8 15,8 			"/>
		</g>
	</g>
	<path d="M4.604,14.352c-1.227-0.01-2.164-0.281-2.783-0.808c-0.633-0.494-0.955-1.104-0.955-1.813c0-0.342,0.104-0.725,0.309-1.137
		c0.202-0.419,0.568-0.79,1.087-1.098C2.826,9.171,3.43,8.95,4.057,8.84c0.458-0.067,0.846-0.111,1.177-0.135
		C5.182,8.621,5.133,8.534,5.088,8.446c-0.124-0.194-0.189-0.443-0.189-0.73c0-0.176,0.025-0.321,0.078-0.448l0.001-0.005
		C4.886,7.269,4.797,7.271,4.711,7.271C3.752,7.259,3.008,6.948,2.5,6.348c-0.522-0.547-0.79-1.202-0.79-1.941
		c0-0.885,0.375-1.697,1.113-2.414C3.335,1.567,3.87,1.29,4.416,1.161C4.937,1.054,5.438,1,5.907,1H10L8.349,1.967L7.723,1.984
		C7.856,2.128,7.98,2.29,8.102,2.482c0.121,0.191,0.232,0.421,0.329,0.686C8.514,3.44,8.555,3.755,8.555,4.106
		c-0.011,0.65-0.158,1.179-0.436,1.573c-0.132,0.185-0.272,0.353-0.42,0.51C7.535,6.35,7.365,6.501,7.186,6.658
		c-0.08,0.086-0.167,0.195-0.247,0.317c-0.083,0.116-0.121,0.235-0.121,0.38c0,0.13,0.036,0.235,0.106,0.312
		c0.092,0.116,0.172,0.206,0.251,0.286l0.562,0.461C8.104,8.717,8.432,9.054,8.708,9.42c0.278,0.394,0.424,0.905,0.436,1.523
		c0,0.881-0.388,1.668-1.154,2.342c-0.785,0.687-1.923,1.046-3.382,1.067H4.606H4.604z M5.579,9.526
		c-0.112,0-0.299,0.013-0.561,0.038C4.684,9.611,4.332,9.691,3.978,9.8C3.904,9.827,3.787,9.875,3.635,9.941
		C3.494,10.005,3.347,10.099,3.2,10.22c-0.134,0.119-0.252,0.274-0.35,0.458c-0.11,0.193-0.164,0.419-0.164,0.693
		c0,0.538,0.239,0.974,0.73,1.328c0.478,0.361,1.15,0.55,1.999,0.562c0.749-0.012,1.325-0.176,1.711-0.489
		c0.366-0.304,0.544-0.684,0.544-1.159c0-0.383-0.126-0.721-0.375-1.006c-0.281-0.288-0.74-0.656-1.36-1.091L5.579,9.526z
		 M4.856,1.943C4.452,1.955,4.124,2.115,3.854,2.433C3.627,2.77,3.519,3.145,3.53,3.572c0,0.587,0.173,1.205,0.515,1.84
		C4.206,5.7,4.416,5.945,4.669,6.143C4.91,6.332,5.188,6.429,5.495,6.429c0.394-0.016,0.716-0.155,0.98-0.427
		c0.11-0.17,0.192-0.371,0.226-0.567c0.023-0.205,0.035-0.392,0.035-0.541c0-0.64-0.166-1.295-0.494-1.947
		C6.095,2.645,5.899,2.398,5.662,2.213C5.433,2.047,5.161,1.955,4.856,1.943z"/>
</g>
<g id="Layer_2">
</g>
</svg>
