<?xml version="1.0" encoding="utf-8"?>
<!-- Generator: Adobe Illustrator 17.0.0, SVG Export Plug-In . SVG Version: 6.00 Build 0)  -->
<!DOCTYPE svg PUBLIC "-//W3C//DTD SVG 1.1//EN" "http://www.w3.org/Graphics/SVG/1.1/DTD/svg11.dtd">
<svg version="1.1" xmlns="http://www.w3.org/2000/svg" xmlns:xlink="http://www.w3.org/1999/xlink" x="0px" y="0px" width="16px"
	 height="16px" viewBox="0 0 16 16" enable-background="new 0 0 16 16" xml:space="preserve">
<g id="Layer_3" display="none">
	<rect x="-60" y="-60" display="inline" fill-rule="evenodd" clip-rule="evenodd" fill="#D7D8CE" width="100" height="140"/>
</g>
<g id="Layer_1">
	<g>
		<g>
			<polygon fill-rule="evenodd" clip-rule="evenodd" points="16,7 14,7 14,5 13,5 13,7 11,7 11,8 13,8 13,10 14,10 14,8 16,8 			"/>
		</g>
	</g>
	<path d="M5.334,16c-1.47-0.012-2.593-0.337-3.335-0.968c-0.758-0.592-1.145-1.323-1.145-2.173c0-0.41,0.125-0.868,0.37-1.362
		c0.242-0.502,0.681-0.947,1.302-1.315c0.676-0.39,1.4-0.654,2.152-0.786c0.549-0.081,1.014-0.133,1.411-0.161
		c-0.063-0.101-0.121-0.205-0.175-0.31C5.766,8.69,5.687,8.392,5.687,8.048c0-0.211,0.03-0.385,0.093-0.537l0.002-0.006
		c-0.111,0.007-0.217,0.009-0.32,0.009C4.313,7.5,3.421,7.128,2.813,6.408C2.187,5.753,1.867,4.968,1.867,4.082
		c0-1.06,0.449-2.034,1.334-2.893C3.813,0.68,4.454,0.348,5.108,0.193C5.733,0.064,6.334,0,6.895,0H11.8L9.821,1.159L9.071,1.18
		c0.16,0.172,0.308,0.366,0.455,0.597C9.671,2.005,9.804,2.281,9.92,2.598c0.099,0.326,0.148,0.703,0.148,1.123
		c-0.013,0.779-0.19,1.413-0.523,1.885C9.386,5.828,9.219,6.03,9.042,6.218c-0.196,0.193-0.4,0.374-0.614,0.563
		c-0.096,0.103-0.201,0.234-0.295,0.38C8.032,7.3,7.988,7.443,7.988,7.616c0,0.156,0.043,0.282,0.127,0.374
		c0.11,0.139,0.206,0.247,0.301,0.343l0.673,0.552c0.44,0.362,0.832,0.765,1.164,1.204c0.334,0.472,0.508,1.085,0.522,1.825
		c0,1.056-0.465,1.999-1.383,2.806C8.451,15.544,7.087,15.974,5.338,16H5.337H5.334z M6.502,10.218
		c-0.135,0-0.359,0.015-0.672,0.046c-0.401,0.056-0.822,0.152-1.246,0.282c-0.089,0.033-0.23,0.09-0.411,0.17
		c-0.17,0.076-0.345,0.188-0.521,0.334c-0.16,0.143-0.302,0.329-0.42,0.549c-0.132,0.232-0.196,0.502-0.196,0.831
		c0,0.645,0.286,1.167,0.875,1.592c0.573,0.433,1.378,0.659,2.396,0.673c0.898-0.014,1.588-0.211,2.05-0.586
		c0.439-0.364,0.652-0.819,0.652-1.389c0-0.459-0.151-0.864-0.449-1.205c-0.336-0.345-0.887-0.786-1.63-1.307L6.502,10.218z
		 M5.636,1.131C5.151,1.145,4.758,1.336,4.435,1.717C4.163,2.12,4.033,2.571,4.047,3.083c0,0.703,0.208,1.444,0.617,2.205
		c0.193,0.345,0.444,0.639,0.747,0.875C5.7,6.39,6.033,6.506,6.402,6.506C6.874,6.487,7.26,6.319,7.577,5.994
		c0.132-0.204,0.23-0.445,0.27-0.68c0.027-0.246,0.042-0.469,0.042-0.648c0-0.767-0.199-1.552-0.592-2.334
		C7.12,1.972,6.886,1.676,6.602,1.453C6.327,1.255,6.001,1.145,5.636,1.131z"/>
</g>
<g id="Layer_2">
</g>
</svg>
