<?xml version="1.0" encoding="utf-8"?>
<!-- Generator: Adobe Illustrator 17.0.0, SVG Export Plug-In . SVG Version: 6.00 Build 0)  -->
<!DOCTYPE svg PUBLIC "-//W3C//DTD SVG 1.1//EN" "http://www.w3.org/Graphics/SVG/1.1/DTD/svg11.dtd">
<svg version="1.1" xmlns="http://www.w3.org/2000/svg" xmlns:xlink="http://www.w3.org/1999/xlink" x="0px" y="0px" width="16px"
	 height="16px" viewBox="0 0 16 16" enable-background="new 0 0 16 16" xml:space="preserve">
<g id="Layer_3" display="none">
	<rect x="-60" y="-20" display="inline" fill-rule="evenodd" clip-rule="evenodd" fill="#D7D8CE" width="100" height="140"/>
</g>
<g id="Layer_1">
	<path fill-rule="evenodd" clip-rule="evenodd" d="M14.964,4.036c-0.035,0.134-0.126,0.273-0.207,0.362
		c-0.035,0.017-0.069,0.034-0.104,0.051c0,0.035,0,0.069,0,0.103c-0.172,0.155-0.345,0.311-0.517,0.466
		C14.068,5.104,14,5.191,13.93,5.277c-0.044,0.031-0.349,0.183-0.362,0.207c0,0.413,0,0.826,0,1.24c-0.017,0-0.034,0-0.052,0
		c0,0.138,0,0.275,0,0.414c-0.017,0-0.034,0-0.052,0c0,0.086,0,0.172,0,0.258c-0.017,0-0.034,0-0.051,0c0,0.086,0,0.172,0,0.259
		c-0.018,0-0.035,0-0.052,0c0,0.069,0,0.138,0,0.206c-0.017,0-0.035,0-0.052,0c0,0.069,0,0.139,0,0.207c-0.017,0-0.035,0-0.052,0
		C13.172,8.379,13.086,8.689,13,9c-0.018,0-0.035,0-0.052,0c0,0.033,0,0.068,0,0.102c-0.017,0-0.034,0-0.051,0
		c-0.017,0.087-0.035,0.173-0.052,0.259c-0.017,0-0.035,0-0.052,0c-0.035,0.103-0.069,0.207-0.104,0.311c-0.017,0-0.034,0-0.052,0
		c-0.034,0.104-0.069,0.207-0.104,0.309c-0.034,0.018-0.068,0.034-0.103,0.052c-0.017,0.068-0.035,0.139-0.052,0.207
		c-0.035,0.018-0.069,0.034-0.104,0.052c0,0.034,0,0.069,0,0.102c-0.034,0.018-0.069,0.035-0.103,0.053c0,0.034,0,0.068,0,0.104
		c-0.017,0-0.034,0-0.052,0c-0.017,0.051-0.034,0.103-0.051,0.154c-0.035,0.018-0.069,0.035-0.103,0.053c0,0.033,0,0.068,0,0.103
		c-0.052,0.034-0.104,0.069-0.155,0.103c0,0.034,0,0.069,0,0.104c-0.069,0.052-0.138,0.104-0.207,0.155c0,0.034,0,0.068,0,0.103
		c-0.172,0.154-0.345,0.311-0.517,0.465c-0.155,0.172-0.31,0.345-0.465,0.518c-0.035,0-0.069,0-0.104,0
		c-0.052,0.068-0.103,0.137-0.155,0.207c-0.052,0.017-0.104,0.033-0.155,0.051c-0.017,0.035-0.035,0.069-0.052,0.104
		c-0.035,0-0.069,0-0.104,0c-0.017,0.035-0.034,0.068-0.052,0.104c-0.051,0.018-0.104,0.035-0.155,0.052c0,0.017,0,0.034,0,0.052
		c-0.035,0-0.069,0-0.104,0c-0.017,0.034-0.035,0.068-0.052,0.104c-0.103,0.034-0.207,0.068-0.31,0.103
		c-0.017,0.034-0.035,0.068-0.052,0.104c-0.069,0.017-0.138,0.034-0.207,0.051c0,0.018,0,0.035,0,0.053
		c-0.103,0.033-0.207,0.068-0.31,0.103c0,0.017,0,0.033,0,0.051c-0.052,0-0.104,0-0.155,0c0,0.018,0,0.035,0,0.052
		c-0.034,0-0.069,0-0.103,0c0,0.017,0,0.034,0,0.052c-0.052,0-0.104,0-0.155,0c0,0.018,0,0.035,0,0.052c-0.034,0-0.069,0-0.104,0
		c0,0.017,0,0.034,0,0.052c-0.052,0-0.103,0-0.155,0c0,0.018,0,0.035,0,0.052c-0.052,0-0.103,0-0.155,0c0,0.017,0,0.034,0,0.052
		c-0.121,0.017-0.241,0.034-0.362,0.052c0,0.017,0,0.034,0,0.052c-0.069,0-0.138,0-0.207,0c-0.584,0.193-1.274,0.258-2.068,0.258
		c-0.258,0-0.517,0-0.775,0c0-0.017,0-0.034,0-0.051c-0.155,0-0.31,0-0.465,0c0-0.018,0-0.035,0-0.053c-0.086,0-0.172,0-0.258,0
		c0-0.017,0-0.034,0-0.051c-0.086,0-0.172,0-0.259,0c0-0.018,0-0.035,0-0.053c-0.086,0-0.172,0-0.258,0c0-0.017,0-0.033,0-0.051
		c-0.052,0-0.104,0-0.155,0c0-0.018,0-0.035,0-0.052c-0.069,0-0.138,0-0.207,0c0-0.018,0-0.034,0-0.052c-0.052,0-0.104,0-0.155,0
		c0-0.018,0-0.035,0-0.052c-0.052,0-0.103,0-0.155,0c0-0.017,0-0.034,0-0.052c-0.052,0-0.103,0-0.155,0c0-0.017,0-0.035,0-0.052
		c-0.052,0-0.103,0-0.155,0c0-0.017,0-0.034,0-0.052c-0.035,0-0.069,0-0.104,0c0-0.018,0-0.034,0-0.052
		c-0.086-0.017-0.172-0.034-0.258-0.052c0-0.018,0-0.034,0-0.051c-0.104-0.035-0.207-0.07-0.311-0.103c0-0.018,0-0.035,0-0.053
		c-0.034,0-0.069,0-0.103,0c0-0.017,0-0.034,0-0.051c-0.035,0-0.069,0-0.104,0c0-0.018,0-0.035,0-0.053c-0.035,0-0.069,0-0.104,0
		c0-0.017,0-0.034,0-0.051c-0.034,0-0.069,0-0.104,0c-0.017-0.035-0.034-0.069-0.051-0.103c-0.035,0-0.069,0-0.104,0
		c0-0.018,0-0.035,0-0.052c-0.115-0.07-0.073,0.022-0.155-0.104c0.465,0,0.931,0,1.396,0c0-0.017,0-0.034,0-0.052
		c0.258-0.035,0.517-0.068,0.775-0.104c0-0.018,0-0.034,0-0.052c0.052,0,0.103,0,0.155,0c0-0.017,0-0.034,0-0.052
		c0.069,0,0.138,0,0.207,0c0-0.018,0-0.034,0-0.051c0.035,0,0.069,0,0.104,0c0-0.018,0-0.035,0-0.053c0.052,0,0.103,0,0.155,0
		c0-0.018,0-0.034,0-0.051c0.034,0,0.069,0,0.104,0c0-0.018,0-0.035,0-0.053c0.051,0,0.103,0,0.155,0c0-0.017,0-0.034,0-0.051
		c0.069-0.018,0.138-0.035,0.207-0.053c0-0.017,0-0.034,0-0.051c0.069-0.018,0.138-0.035,0.207-0.053
		c0.017-0.033,0.035-0.068,0.052-0.102c0.069-0.018,0.138-0.034,0.207-0.052c0.017-0.035,0.034-0.068,0.051-0.104
		c0.035,0,0.069,0,0.104,0c0.017-0.035,0.035-0.068,0.052-0.103c0.035,0,0.069,0,0.103,0c0.031-0.022,0.042-0.068,0.103-0.104
		c0-0.018,0-0.034,0-0.051c-0.892-0.068-1.612-0.473-2.017-1.035c-0.069-0.051-0.138-0.104-0.207-0.154c0-0.035,0-0.069,0-0.104
		c-0.035-0.018-0.069-0.035-0.103-0.052c0-0.034,0-0.069,0-0.103c-0.1-0.177-0.233-0.311-0.258-0.569
		c0.4,0.004,0.868,0.008,1.189-0.051c0-0.018,0-0.035,0-0.053c-0.222-0.008-0.411-0.07-0.569-0.154c0-0.018,0-0.035,0-0.052
		c-0.034,0-0.069,0-0.103,0c0-0.017,0-0.034,0-0.052C2.953,9.24,2.884,9.223,2.815,9.206C2.798,9.172,2.78,9.137,2.763,9.102
		c-0.035,0-0.069,0-0.104,0C2.625,9.051,2.591,9,2.556,8.947c-0.034,0-0.069,0-0.103,0C2.384,8.861,2.315,8.775,2.246,8.689
		C2.212,8.672,2.177,8.654,2.143,8.637c0-0.033,0-0.068,0-0.102C2.091,8.5,2.039,8.465,1.988,8.431
		C1.682,7.99,1.463,7.424,1.471,6.673c0.017,0,0.034,0,0.052,0c0.18,0.204,0.831,0.329,1.189,0.362c0-0.018,0-0.035,0-0.053
		C2.487,6.88,2.12,6.51,1.988,6.311c0-0.034,0-0.068,0-0.104C1.953,6.19,1.919,6.173,1.884,6.156
		C1.85,6.053,1.815,5.949,1.781,5.846c-0.017,0-0.034,0-0.052,0c0-0.035,0-0.068,0-0.103c-0.017,0-0.034,0-0.052,0
		C1.643,5.57,1.608,5.398,1.574,5.225c-0.053-0.166-0.18-0.609-0.104-0.879c0.017,0,0.034,0,0.052,0c0-0.12,0-0.24,0-0.361
		c0.017,0,0.034,0,0.052,0c0-0.052,0-0.104,0-0.155c0.017,0,0.034,0,0.052,0c0-0.052,0-0.102,0-0.155c0.017,0,0.034,0,0.051,0
		c0-0.051,0-0.103,0-0.154c0.018,0,0.035,0,0.052,0c0.035-0.104,0.069-0.207,0.104-0.31c0.035,0,0.069,0,0.104,0
		c0,0.018,0,0.034,0,0.052c0.103,0.086,0.207,0.173,0.31,0.259c0,0.034,0,0.068,0,0.103C2.281,3.64,2.315,3.657,2.35,3.674
		C2.418,3.76,2.487,3.847,2.556,3.933C2.608,3.949,2.66,3.967,2.711,3.984c0.103,0.121,0.207,0.241,0.31,0.361
		c0.035,0,0.069,0,0.103,0C3.177,4.415,3.228,4.484,3.28,4.553c0.034,0,0.069,0,0.104,0c0.017,0.035,0.034,0.069,0.051,0.104
		c0.035,0,0.069,0,0.103,0C3.573,4.708,3.607,4.76,3.642,4.812c0.035,0,0.069,0,0.103,0C3.763,4.846,3.78,4.881,3.797,4.915
		c0.069,0.017,0.138,0.034,0.207,0.052C4.021,5.001,4.039,5.035,4.056,5.07c0.104,0.034,0.207,0.068,0.31,0.103
		C4.383,5.208,4.4,5.242,4.418,5.277c0.155,0.051,0.31,0.104,0.465,0.154c0,0.018,0,0.035,0,0.053c0.035,0,0.069,0,0.103,0
		c0,0.017,0,0.033,0,0.051C5.055,5.553,5.124,5.57,5.193,5.587c0,0.018,0,0.034,0,0.052C5.296,5.656,5.4,5.674,5.503,5.69
		c0,0.017,0,0.034,0,0.052c0.052,0,0.103,0,0.155,0c0,0.018,0,0.035,0,0.052c0.052,0,0.104,0,0.155,0c0,0.017,0,0.034,0,0.052
		c0.052,0,0.103,0,0.155,0c0,0.018,0,0.034,0,0.052c0.069,0,0.138,0,0.207,0c0,0.017,0,0.034,0,0.052
		C6.313,5.967,6.451,5.983,6.589,6c0,0.018,0,0.035,0,0.053C7.002,6.103,7.416,6.156,7.83,6.207c0-0.068,0-0.137,0-0.207
		C7.741,5.902,7.777,5.613,7.778,5.432C7.779,4.93,7.91,4.564,8.088,4.242c0-0.033,0-0.068,0-0.103
		c0.034-0.017,0.069-0.034,0.104-0.052c0.017-0.068,0.034-0.139,0.051-0.207c0.052-0.034,0.103-0.068,0.155-0.104
		c0-0.034,0-0.068,0-0.103C8.519,3.57,8.64,3.467,8.76,3.363C8.777,3.33,8.795,3.295,8.812,3.261c0.035,0,0.069,0,0.103,0
		C8.95,3.209,8.984,3.157,9.019,3.105C9.088,3.088,9.157,3.07,9.226,3.054C9.243,3.02,9.26,2.984,9.277,2.95
		c0.035,0,0.069,0,0.104,0c0-0.017,0-0.034,0-0.052c0.034,0,0.069,0,0.103,0c0-0.018,0-0.034,0-0.051c0.052,0,0.104,0,0.155,0
		c0-0.018,0-0.035,0-0.053c0.052,0,0.103,0,0.155,0c0-0.017,0-0.034,0-0.051c0.052,0,0.103,0,0.155,0c0-0.018,0-0.035,0-0.053
		c0.086,0,0.172,0,0.258,0c0-0.017,0-0.034,0-0.051c0.31,0,0.621,0,0.931,0c0,0.017,0,0.034,0,0.051c0.086,0,0.172,0,0.258,0
		c0,0.018,0,0.035,0,0.053c0.052,0,0.103,0,0.155,0c0,0.017,0,0.034,0,0.051c0.052,0,0.104,0,0.155,0c0,0.018,0,0.035,0,0.053
		c0.051,0,0.103,0,0.155,0c0,0.017,0,0.033,0,0.051c0.035,0,0.069,0,0.104,0c0,0.018,0,0.035,0,0.052c0.034,0,0.069,0,0.103,0
		c0.017,0.034,0.034,0.069,0.051,0.103c0.069,0.017,0.138,0.034,0.207,0.052c0.035,0.052,0.069,0.104,0.104,0.155
		c0.035,0,0.069,0,0.103,0c0.018,0.034,0.035,0.069,0.052,0.103C12.711,3.48,12.755,3.506,13,3.52
		c0.119-0.105,0.248-0.044,0.414-0.104c0-0.018,0-0.035,0-0.053c0.051,0,0.103,0,0.155,0c0-0.017,0-0.033,0-0.051
		c0.052,0,0.103,0,0.155,0c0-0.018,0-0.035,0-0.052c0.069-0.017,0.138-0.034,0.207-0.052c0-0.018,0-0.035,0-0.052
		c0.052,0,0.104,0,0.155,0c0.172-0.104,0.345-0.207,0.517-0.309c0,0.051,0,0.102,0,0.154c-0.017,0-0.035,0-0.052,0
		c-0.017,0.086-0.035,0.172-0.052,0.259c-0.017,0-0.035,0-0.052,0c0,0.034,0,0.069,0,0.103c-0.017,0-0.034,0-0.052,0
		c0,0.035,0,0.07,0,0.103c-0.034,0.018-0.069,0.035-0.103,0.053c0,0.034,0,0.068,0,0.103c-0.052,0.034-0.103,0.068-0.155,0.104
		c0,0.033,0,0.068,0,0.102c-0.035,0.018-0.069,0.034-0.104,0.052c-0.104,0.121-0.207,0.241-0.31,0.361c-0.035,0-0.069,0-0.104,0
		c-0.052,0.07-0.104,0.139-0.155,0.207c0.018,0,0.035,0,0.052,0c0.116-0.099,0.352-0.047,0.517-0.104
		C14.344,4.242,14.654,4.14,14.964,4.036z"/>
</g>
<g id="Layer_2">
</g>
</svg>
