<?xml version="1.0" encoding="utf-8"?>
<!-- Generator: Adobe Illustrator 17.0.0, SVG Export Plug-In . SVG Version: 6.00 Build 0)  -->
<!DOCTYPE svg PUBLIC "-//W3C//DTD SVG 1.1//EN" "http://www.w3.org/Graphics/SVG/1.1/DTD/svg11.dtd">
<svg version="1.1" xmlns="http://www.w3.org/2000/svg" xmlns:xlink="http://www.w3.org/1999/xlink" x="0px" y="0px" width="16px"
	 height="16px" viewBox="0 0 16 16" enable-background="new 0 0 16 16" xml:space="preserve">
<g id="Layer_3" display="none">
	<rect x="-60" y="-100" display="inline" fill-rule="evenodd" clip-rule="evenodd" fill="#D7D8CE" width="100" height="140"/>
</g>
<g id="Layer_1">
	<g>
		<g>
			<path d="M7.991,0.625C3.918,0.625,0.616,3.927,0.616,8c0,3.124,1.944,5.793,4.687,6.868c-0.065-0.584-0.123-1.479,0.026-2.116
				c0.134-0.575,0.865-3.666,0.865-3.666S5.973,8.644,5.973,7.991c0-1.025,0.594-1.791,1.334-1.791c0.629,0,0.933,0.472,0.933,1.039
				c0,0.633-0.403,1.579-0.611,2.455c-0.174,0.734,0.368,1.333,1.092,1.333c1.311,0,2.318-1.382,2.318-3.377
				c0-1.766-1.269-3-3.081-3c-2.098,0-3.33,1.574-3.33,3.2c0,0.634,0.244,1.314,0.549,1.683c0.06,0.073,0.069,0.137,0.051,0.211
				c-0.056,0.233-0.18,0.734-0.205,0.837c-0.032,0.135-0.107,0.164-0.247,0.099c-0.921-0.429-1.497-1.776-1.497-2.857
				c0-2.326,1.69-4.463,4.873-4.463c2.558,0,4.547,1.823,4.547,4.259c0,2.542-1.603,4.587-3.827,4.587
				c-0.747,0-1.45-0.388-1.69-0.847c0,0-0.37,1.408-0.459,1.753c-0.167,0.641-0.616,1.444-0.917,1.933
				c0.69,0.214,1.423,0.329,2.184,0.329c4.073,0,7.375-3.302,7.375-7.375C15.366,3.927,12.064,0.625,7.991,0.625z"/>
		</g>
	</g>
</g>
<g id="Layer_2">
</g>
</svg>
