<?xml version="1.0" encoding="utf-8"?>
<!-- Generator: Adobe Illustrator 17.0.0, SVG Export Plug-In . SVG Version: 6.00 Build 0)  -->
<!DOCTYPE svg PUBLIC "-//W3C//DTD SVG 1.1//EN" "http://www.w3.org/Graphics/SVG/1.1/DTD/svg11.dtd">
<svg version="1.1" xmlns="http://www.w3.org/2000/svg" xmlns:xlink="http://www.w3.org/1999/xlink" x="0px" y="0px" width="16px"
	 height="16px" viewBox="0 0 16 16" enable-background="new 0 0 16 16" xml:space="preserve">
<g id="Layer_3" display="none">
	<rect x="-60" y="-20" display="inline" fill-rule="evenodd" clip-rule="evenodd" fill="#D7D8CE" width="100" height="140"/>
</g>
<g id="Layer_1">
	<path fill-rule="evenodd" clip-rule="evenodd" d="M15.959,3.42c-0.04,0.153-0.143,0.311-0.236,0.414
		c-0.04,0.019-0.079,0.039-0.118,0.058c0,0.04,0,0.079,0,0.118c-0.197,0.177-0.394,0.355-0.591,0.532
		c-0.079,0.098-0.157,0.197-0.236,0.295c-0.05,0.036-0.398,0.209-0.413,0.237c0,0.472,0,0.943,0,1.416c-0.02,0-0.039,0-0.059,0
		c0,0.157,0,0.315,0,0.473c-0.02,0-0.039,0-0.059,0c0,0.098,0,0.196,0,0.294c-0.019,0-0.039,0-0.058,0c0,0.098,0,0.196,0,0.296
		c-0.02,0-0.04,0-0.059,0c0,0.079,0,0.157,0,0.235c-0.02,0-0.04,0-0.059,0c0,0.079,0,0.158,0,0.237c-0.02,0-0.04,0-0.059,0
		c-0.099,0.355-0.197,0.709-0.295,1.064c-0.02,0-0.04,0-0.06,0c0,0.038,0,0.078,0,0.117c-0.02,0-0.039,0-0.059,0
		c-0.02,0.099-0.04,0.197-0.059,0.296c-0.02,0-0.04,0-0.059,0c-0.04,0.118-0.079,0.237-0.118,0.355c-0.02,0-0.039,0-0.059,0
		c-0.039,0.118-0.079,0.236-0.118,0.353c-0.039,0.02-0.078,0.039-0.118,0.059c-0.02,0.078-0.04,0.158-0.059,0.236
		c-0.04,0.02-0.079,0.039-0.118,0.059c0,0.039,0,0.079,0,0.117c-0.039,0.02-0.079,0.04-0.118,0.06c0,0.039,0,0.078,0,0.118
		c-0.02,0-0.039,0-0.059,0c-0.02,0.058-0.039,0.118-0.059,0.176c-0.04,0.02-0.079,0.04-0.118,0.06c0,0.038,0,0.078,0,0.117
		c-0.059,0.039-0.118,0.079-0.177,0.118c0,0.039,0,0.079,0,0.118c-0.079,0.059-0.157,0.118-0.236,0.177c0,0.039,0,0.078,0,0.118
		c-0.197,0.176-0.394,0.355-0.591,0.531c-0.177,0.196-0.354,0.394-0.531,0.591c-0.04,0-0.079,0-0.118,0
		c-0.059,0.078-0.118,0.156-0.177,0.236c-0.059,0.019-0.118,0.038-0.177,0.058c-0.02,0.04-0.04,0.079-0.059,0.118
		c-0.04,0-0.079,0-0.118,0c-0.02,0.04-0.039,0.078-0.059,0.118c-0.059,0.02-0.118,0.04-0.177,0.059c0,0.019,0,0.039,0,0.059
		c-0.04,0-0.079,0-0.118,0c-0.02,0.039-0.04,0.078-0.059,0.118c-0.118,0.039-0.236,0.078-0.354,0.118
		c-0.02,0.039-0.04,0.078-0.059,0.118c-0.079,0.019-0.157,0.039-0.236,0.058c0,0.02,0,0.04,0,0.06
		c-0.118,0.038-0.236,0.078-0.354,0.118c0,0.019,0,0.038,0,0.058c-0.059,0-0.118,0-0.177,0c0,0.02,0,0.04,0,0.059
		c-0.039,0-0.079,0-0.118,0c0,0.02,0,0.039,0,0.059c-0.059,0-0.118,0-0.177,0c0,0.02,0,0.04,0,0.059c-0.039,0-0.079,0-0.118,0
		c0,0.019,0,0.039,0,0.059c-0.059,0-0.118,0-0.177,0c0,0.02,0,0.04,0,0.059c-0.059,0-0.118,0-0.177,0c0,0.019,0,0.039,0,0.059
		c-0.138,0.02-0.275,0.039-0.413,0.059c0,0.019,0,0.039,0,0.059c-0.079,0-0.158,0-0.236,0c-0.667,0.221-1.455,0.294-2.361,0.294
		c-0.295,0-0.59,0-0.885,0c0-0.019,0-0.039,0-0.058c-0.177,0-0.354,0-0.531,0c0-0.02,0-0.04,0-0.06c-0.099,0-0.197,0-0.295,0
		c0-0.019,0-0.039,0-0.058c-0.099,0-0.197,0-0.296,0c0-0.02,0-0.04,0-0.06c-0.098,0-0.197,0-0.295,0c0-0.019,0-0.038,0-0.058
		c-0.059,0-0.118,0-0.177,0c0-0.02,0-0.04,0-0.059c-0.079,0-0.157,0-0.236,0c0-0.02,0-0.039,0-0.059c-0.059,0-0.118,0-0.177,0
		c0-0.02,0-0.04,0-0.059c-0.059,0-0.118,0-0.177,0c0-0.019,0-0.039,0-0.059c-0.059,0-0.118,0-0.177,0c0-0.02,0-0.04,0-0.059
		c-0.059,0-0.118,0-0.177,0c0-0.019,0-0.039,0-0.059c-0.04,0-0.079,0-0.118,0c0-0.02,0-0.039,0-0.059
		c-0.098-0.019-0.197-0.039-0.295-0.059c0-0.02,0-0.039,0-0.058c-0.118-0.04-0.236-0.08-0.355-0.118c0-0.02,0-0.04,0-0.06
		c-0.039,0-0.079,0-0.118,0c0-0.019,0-0.039,0-0.058c-0.04,0-0.079,0-0.118,0c0-0.02,0-0.04,0-0.06c-0.04,0-0.079,0-0.118,0
		c0-0.019,0-0.039,0-0.058c-0.039,0-0.079,0-0.118,0c-0.02-0.04-0.039-0.079-0.059-0.118c-0.04,0-0.079,0-0.118,0
		c0-0.02,0-0.04,0-0.059c-0.131-0.08-0.083,0.026-0.177-0.118c0.531,0,1.063,0,1.594,0c0-0.019,0-0.039,0-0.059
		c0.295-0.04,0.591-0.078,0.885-0.118c0-0.02,0-0.039,0-0.059c0.059,0,0.118,0,0.177,0c0-0.019,0-0.039,0-0.059
		c0.079,0,0.157,0,0.236,0c0-0.02,0-0.039,0-0.058c0.04,0,0.079,0,0.118,0c0-0.02,0-0.04,0-0.06c0.059,0,0.118,0,0.177,0
		c0-0.02,0-0.039,0-0.058c0.039,0,0.079,0,0.118,0c0-0.02,0-0.04,0-0.06c0.059,0,0.118,0,0.177,0c0-0.019,0-0.039,0-0.058
		c0.079-0.02,0.157-0.04,0.236-0.06c0-0.019,0-0.039,0-0.058c0.079-0.02,0.157-0.04,0.236-0.06c0.02-0.038,0.04-0.078,0.059-0.117
		c0.079-0.02,0.157-0.039,0.237-0.059c0.02-0.04,0.039-0.078,0.058-0.118c0.04,0,0.079,0,0.118,0c0.019-0.04,0.04-0.078,0.059-0.118
		c0.04,0,0.079,0,0.118,0c0.036-0.025,0.047-0.078,0.118-0.118c0-0.02,0-0.039,0-0.058c-1.019-0.078-1.841-0.54-2.303-1.182
		c-0.079-0.058-0.157-0.118-0.236-0.176c0-0.04,0-0.079,0-0.118c-0.04-0.02-0.079-0.04-0.118-0.059c0-0.039,0-0.079,0-0.118
		c-0.114-0.202-0.267-0.355-0.295-0.65C2.187,9.8,2.721,9.804,3.088,9.737c0-0.02,0-0.04,0-0.06c-0.254-0.009-0.469-0.08-0.65-0.176
		c0-0.02,0-0.04,0-0.059c-0.039,0-0.079,0-0.118,0c0-0.019,0-0.039,0-0.059c-0.079-0.02-0.157-0.04-0.236-0.059
		c-0.019-0.039-0.04-0.079-0.059-0.118c-0.04,0-0.079,0-0.118,0C1.868,9.146,1.829,9.088,1.789,9.028c-0.039,0-0.079,0-0.118,0
		C1.593,8.93,1.514,8.832,1.435,8.734c-0.039-0.02-0.079-0.04-0.118-0.06c0-0.038,0-0.078,0-0.117
		C1.258,8.517,1.199,8.477,1.14,8.438C0.79,7.935,0.541,7.288,0.55,6.431c0.02,0,0.039,0,0.059,0
		c0.205,0.233,0.949,0.376,1.358,0.414c0-0.02,0-0.04,0-0.06C1.71,6.667,1.291,6.244,1.14,6.017c0-0.039,0-0.078,0-0.118
		C1.1,5.88,1.061,5.86,1.022,5.841c-0.04-0.118-0.079-0.237-0.118-0.355c-0.02,0-0.039,0-0.059,0c0-0.04,0-0.078,0-0.118
		c-0.02,0-0.039,0-0.059,0C0.746,5.172,0.707,4.974,0.668,4.777C0.607,4.587,0.462,4.081,0.55,3.773c0.02,0,0.039,0,0.059,0
		c0-0.137,0-0.274,0-0.413c0.02,0,0.039,0,0.059,0c0-0.059,0-0.118,0-0.177c0.02,0,0.039,0,0.059,0c0-0.059,0-0.117,0-0.177
		c0.02,0,0.039,0,0.058,0c0-0.058,0-0.118,0-0.176c0.02,0,0.04,0,0.059,0c0.04-0.118,0.079-0.236,0.118-0.355
		c0.04,0,0.079,0,0.118,0c0,0.02,0,0.039,0,0.059C1.199,2.632,1.317,2.731,1.435,2.83c0,0.039,0,0.078,0,0.118
		c0.04,0.019,0.079,0.039,0.118,0.058C1.632,3.104,1.71,3.203,1.789,3.301C1.848,3.32,1.907,3.34,1.966,3.36
		C2.085,3.499,2.203,3.636,2.32,3.773c0.04,0,0.079,0,0.118,0c0.059,0.079,0.118,0.158,0.177,0.236c0.039,0,0.079,0,0.118,0
		c0.02,0.04,0.039,0.079,0.059,0.118c0.04,0,0.079,0,0.118,0c0.04,0.059,0.079,0.118,0.118,0.177c0.04,0,0.079,0,0.118,0
		c0.02,0.039,0.039,0.079,0.059,0.118c0.079,0.019,0.157,0.039,0.236,0.059c0.02,0.039,0.04,0.078,0.059,0.118
		C3.62,4.64,3.738,4.679,3.856,4.719c0.02,0.039,0.04,0.078,0.059,0.118c0.177,0.058,0.354,0.118,0.531,0.176c0,0.02,0,0.04,0,0.06
		c0.04,0,0.079,0,0.118,0c0,0.019,0,0.038,0,0.058c0.079,0.02,0.157,0.04,0.236,0.059c0,0.02,0,0.039,0,0.059
		c0.118,0.02,0.236,0.04,0.355,0.059c0,0.019,0,0.039,0,0.059c0.059,0,0.118,0,0.177,0c0,0.02,0,0.04,0,0.059
		c0.059,0,0.118,0,0.177,0c0,0.019,0,0.039,0,0.059c0.059,0,0.118,0,0.177,0c0,0.02,0,0.039,0,0.059c0.079,0,0.157,0,0.236,0
		c0,0.019,0,0.039,0,0.059c0.158,0.02,0.315,0.039,0.472,0.058c0,0.02,0,0.04,0,0.06C6.867,5.78,7.339,5.841,7.811,5.899
		c0-0.078,0-0.156,0-0.236C7.71,5.551,7.752,5.221,7.753,5.013c0.001-0.573,0.15-0.99,0.354-1.358c0-0.038,0-0.078,0-0.117
		c0.039-0.02,0.079-0.039,0.118-0.059c0.02-0.078,0.039-0.158,0.059-0.236c0.059-0.039,0.118-0.078,0.177-0.118
		c0-0.039,0-0.078,0-0.118c0.138-0.118,0.275-0.236,0.413-0.355c0.019-0.038,0.04-0.078,0.059-0.117c0.04,0,0.079,0,0.118,0
		c0.04-0.059,0.079-0.118,0.118-0.177c0.079-0.02,0.157-0.04,0.236-0.059c0.02-0.039,0.04-0.079,0.059-0.118c0.04,0,0.079,0,0.118,0
		c0-0.019,0-0.039,0-0.059c0.039,0,0.079,0,0.118,0c0-0.02,0-0.039,0-0.058c0.059,0,0.118,0,0.177,0c0-0.02,0-0.04,0-0.06
		c0.059,0,0.118,0,0.177,0c0-0.019,0-0.039,0-0.058c0.059,0,0.118,0,0.177,0c0-0.02,0-0.04,0-0.06c0.098,0,0.196,0,0.295,0
		c0-0.019,0-0.039,0-0.058c0.354,0,0.709,0,1.063,0c0,0.019,0,0.039,0,0.058c0.098,0,0.197,0,0.295,0c0,0.02,0,0.04,0,0.06
		c0.059,0,0.118,0,0.177,0c0,0.019,0,0.039,0,0.058c0.059,0,0.118,0,0.177,0c0,0.02,0,0.04,0,0.06c0.059,0,0.118,0,0.177,0
		c0,0.019,0,0.038,0,0.058c0.04,0,0.079,0,0.118,0c0,0.02,0,0.04,0,0.059c0.039,0,0.079,0,0.118,0
		c0.02,0.039,0.039,0.079,0.059,0.118c0.079,0.019,0.158,0.039,0.236,0.059c0.04,0.059,0.079,0.118,0.118,0.177
		c0.04,0,0.079,0,0.118,0c0.02,0.039,0.04,0.079,0.06,0.117c0.142,0.133,0.193,0.163,0.472,0.178c0.136-0.12,0.283-0.05,0.472-0.118
		c0-0.02,0-0.04,0-0.06c0.058,0,0.118,0,0.177,0c0-0.019,0-0.038,0-0.058c0.059,0,0.118,0,0.177,0c0-0.02,0-0.04,0-0.059
		c0.079-0.02,0.157-0.039,0.236-0.059c0-0.02,0-0.04,0-0.059c0.059,0,0.118,0,0.177,0c0.197-0.118,0.394-0.236,0.591-0.353
		c0,0.058,0,0.117,0,0.176c-0.02,0-0.04,0-0.059,0c-0.02,0.098-0.04,0.196-0.059,0.295c-0.02,0-0.04,0-0.059,0
		c0,0.039,0,0.079,0,0.117c-0.02,0-0.039,0-0.059,0c0,0.04,0,0.08,0,0.118c-0.039,0.02-0.079,0.04-0.118,0.06
		c0,0.039,0,0.078,0,0.118c-0.059,0.039-0.118,0.078-0.177,0.118c0,0.038,0,0.078,0,0.117c-0.04,0.02-0.079,0.039-0.118,0.059
		c-0.118,0.138-0.236,0.275-0.354,0.413c-0.04,0-0.079,0-0.118,0c-0.059,0.08-0.118,0.158-0.177,0.236c0.02,0,0.04,0,0.059,0
		c0.132-0.113,0.403-0.054,0.591-0.118C15.25,3.655,15.605,3.538,15.959,3.42z"/>
</g>
<g id="Layer_2">
</g>
</svg>
