<svg xmlns="http://www.w3.org/2000/svg" width="16" height="16" viewBox="0 0 16 16"><path d="M8.932 7.008c.19-.15.283-.393.283-.73 0-.186-.032-.34-.094-.46s-.146-.213-.25-.28c-.106-.067-.226-.114-.363-.14-.136-.027-.277-.04-.424-.04h-1.36v1.874H8.21c.292 0 .533-.075.722-.224zm-.598 1.425h-1.61v2.198h1.58c.16 0 .314-.016.46-.05.148-.033.277-.09.39-.168.11-.078.2-.185.266-.32.067-.134.1-.306.1-.516 0-.41-.108-.704-.325-.88-.218-.175-.504-.263-.86-.263zM12 1H4C2 1 1 2 1 4v8c0 2 1 3 3 3h8c2 0 3-1 3-3V4c0-2-1-3-3-3zm-.967 9.727c-.146.295-.344.537-.592.724-.247.187-.53.326-.848.416-.317.09-.644.134-.98.134H5V4h3.508c.356 0 .682.023.975.09.293.068.544.18.754.332.21.153.372.357.487.61.115.255.173.57.173.943 0 .403-.085.74-.256 1.01-.17.268-.423.49-.76.66.462.144.806.393 1.033.747.227.355.34.784.34 1.285 0 .405-.073.755-.22 1.05z"/></svg>