<svg xmlns="http://www.w3.org/2000/svg" width="16" height="16" viewBox="0 0 16 16"><g><path fill-rule="evenodd" clip-rule="evenodd" d="M15 7h-2V5h-1v2h-2v1h2v2h1V8h2z"/><path d="M4.604 14.352c-1.227-.01-2.164-.28-2.783-.808C1.19 13.05.867 12.44.867 11.73c0-.34.104-.724.31-1.136.2-.42.567-.79 1.086-1.098.564-.325 1.168-.546 1.795-.656.458-.067.846-.11 1.177-.135-.052-.084-.1-.17-.146-.26-.124-.193-.19-.442-.19-.73 0-.175.026-.32.08-.447v-.005c-.092.006-.18.008-.267.008-.958-.01-1.702-.322-2.21-.922-.522-.547-.79-1.202-.79-1.94 0-.886.375-1.698 1.113-2.415.512-.426 1.047-.703 1.593-.832.52-.106 1.022-.16 1.49-.16H10l-1.65.967-.627.017c.133.144.257.306.38.498.12.19.23.42.328.686.084.272.125.587.125.938-.01.65-.158 1.18-.436 1.573-.133.184-.273.352-.42.51-.165.16-.335.31-.514.468-.08.086-.167.195-.247.317-.084.116-.122.235-.122.38 0 .13.036.235.106.312.092.116.172.206.25.286l.563.46c.367.304.695.64.97 1.007.28.394.425.905.437 1.523 0 .88-.388 1.668-1.154 2.342-.785.687-1.923 1.046-3.382 1.067h-.004zm.975-4.826c-.113 0-.3.013-.562.038-.334.047-.686.127-1.04.236-.074.027-.19.075-.343.14-.14.065-.288.16-.435.28-.134.12-.252.274-.35.458-.11.193-.164.42-.164.693 0 .54.24.975.73 1.33.478.36 1.15.55 2 .56.748-.01 1.324-.175 1.71-.488.366-.304.544-.684.544-1.16 0-.382-.126-.72-.375-1.005-.28-.288-.74-.656-1.36-1.09l-.356.01zm-.724-7.583c-.404.012-.732.172-1.002.49-.227.337-.335.712-.324 1.14 0 .586.173 1.204.515 1.84.16.287.37.532.624.73.24.19.518.286.825.286.394-.017.716-.156.98-.428.11-.17.192-.37.226-.567.024-.205.036-.392.036-.54 0-.64-.166-1.296-.494-1.948-.147-.302-.343-.55-.58-.734-.23-.166-.5-.258-.806-.27z"/></g></svg>