<svg xmlns="http://www.w3.org/2000/svg" width="16" height="16" viewBox="0 0 16 16"><path fill-rule="evenodd" clip-rule="evenodd" d="M14.964 4.036c-.035.134-.126.273-.207.362l-.104.05v.104l-.517.466-.206.26c-.044.03-.35.182-.362.206v1.24h-.052v.414h-.052v.258h-.05v.26h-.053v.205h-.05v.208h-.053L13 9h-.052v.102h-.05l-.053.26h-.052l-.104.31h-.053l-.104.31-.103.05-.052.208-.104.052v.102l-.103.053v.104h-.05l-.052.155-.103.053v.103l-.155.104v.104l-.207.155v.103l-.517.465-.465.52h-.103c-.052.067-.103.136-.155.206l-.155.05-.052.105h-.104c-.016.036-.033.07-.05.105l-.156.052v.052H9.74c-.017.033-.035.067-.052.103l-.31.103-.052.104-.207.05v.054c-.104.033-.208.068-.31.103v.05h-.156v.053H8.55v.052h-.154v.052h-.104v.052h-.155v.052h-.155v.052l-.362.052v.052h-.207c-.584.193-1.274.258-2.068.258H4.57v-.05h-.465v-.054h-.258v-.05h-.26v-.054H3.33v-.05h-.155v-.053h-.207v-.05h-.155v-.053h-.155v-.052h-.155v-.052h-.155v-.052h-.104v-.05l-.258-.053v-.05c-.104-.036-.207-.07-.31-.104v-.053H1.57v-.05h-.104v-.054h-.104v-.05H1.26l-.05-.104h-.105v-.052c-.115-.07-.073.022-.155-.104h1.396v-.052c.258-.035.517-.068.775-.104v-.052h.156v-.052h.207v-.05h.104v-.054h.155v-.05h.104v-.054H4v-.05c.07-.02.14-.036.208-.054v-.05c.07-.02.138-.036.207-.054l.052-.102.207-.052c.017-.035.034-.068.05-.104h.105l.05-.103h.104c.03-.023.042-.07.103-.105v-.05c-.892-.07-1.612-.474-2.017-1.036-.07-.052-.138-.105-.207-.155v-.104l-.103-.05v-.104c-.1-.177-.233-.31-.258-.57.4.005.868.01 1.19-.05v-.053c-.223-.008-.412-.07-.57-.154v-.053H3.02v-.052c-.067-.015-.136-.032-.205-.05l-.052-.103H2.66c-.035-.05-.07-.102-.104-.155h-.103l-.207-.258-.103-.053v-.102l-.155-.104c-.306-.44-.525-1.006-.517-1.757h.053c.18.204.83.33 1.19.362v-.053c-.226-.102-.593-.472-.725-.67v-.105l-.104-.05-.103-.31h-.05v-.104h-.053c-.034-.173-.07-.345-.103-.518-.053-.166-.18-.61-.104-.88h.052v-.36h.052V3.83h.052v-.155h.05V3.52h.053l.103-.31h.104v.053l.31.26v.102c.034.015.068.032.103.05l.206.258.155.05.31.362h.104l.156.208h.104l.05.104h.104c.035.05.07.103.104.155h.103l.052.103.207.052.052.103.31.103.052.104c.155.05.31.104.465.154v.054h.103v.05c.07.02.138.036.207.053v.052l.31.05v.052h.155v.052h.155v.052h.155v.052h.207v.052L6.59 6v.053c.412.05.826.103 1.24.154V6c-.09-.098-.053-.387-.052-.568 0-.502.132-.868.31-1.19V4.14l.104-.053.05-.207c.053-.034.104-.068.156-.104v-.103l.362-.31.052-.102h.103c.035-.05.07-.103.104-.155.068-.017.137-.035.206-.05l.05-.105h.105v-.052h.104v-.05h.155v-.054h.154v-.05h.155V2.69h.257v-.05h.93v.05h.26v.053h.154v.05h.156v.054h.155v.05h.105v.053h.103l.05.103.208.052.104.155h.103l.052.103c.126.117.17.143.415.157.12-.105.248-.044.414-.104v-.053h.155v-.05h.154V3.26l.207-.052v-.052h.156l.517-.31v.155h-.052l-.05.26h-.053v.103h-.052v.103l-.103.053v.102l-.155.104v.102l-.104.052-.31.36h-.104l-.156.208h.052c.116-.1.352-.047.517-.104.31-.102.62-.204.93-.308z"/></svg>