<svg xmlns="http://www.w3.org/2000/svg" width="16" height="16" viewBox="0 0 16 16"><g><path fill-rule="evenodd" clip-rule="evenodd" d="M16 7h-2V5h-1v2h-2v1h2v2h1V8h2z"/><path d="M5.334 16c-1.47-.012-2.593-.337-3.335-.968C1.24 14.44.853 13.71.853 12.86c0-.41.125-.87.37-1.363.242-.502.68-.947 1.302-1.315.676-.39 1.4-.654 2.152-.786.55-.08 1.014-.133 1.41-.16-.062-.102-.12-.206-.174-.31-.148-.236-.227-.534-.227-.878 0-.21.03-.385.093-.537l.002-.005c-.11.007-.217.01-.32.01-1.15-.015-2.04-.387-2.65-1.107-.625-.655-.945-1.44-.945-2.326 0-1.06.45-2.034 1.334-2.893C3.814.68 4.455.347 5.11.192 5.733.063 6.334 0 6.895 0H11.8L9.82 1.16l-.75.02c.16.172.31.366.456.597.145.228.278.504.394.82.1.327.148.704.148 1.124-.013.78-.19 1.414-.523 1.886-.16.222-.326.424-.503.612-.196.193-.4.374-.614.563-.096.104-.2.235-.295.38-.1.14-.145.283-.145.456 0 .156.043.282.127.374.11.14.206.247.3.343l.674.552c.44.362.83.765 1.163 1.204.334.47.508 1.084.522 1.824 0 1.056-.465 2-1.383 2.806-.94.824-2.305 1.254-4.054 1.28h-.004zm1.168-5.782c-.135 0-.36.015-.672.046-.4.056-.822.152-1.246.282-.09.033-.23.09-.41.17-.17.076-.346.188-.522.334-.16.143-.302.33-.42.55-.132.23-.196.5-.196.83 0 .645.286 1.167.875 1.592.574.433 1.38.66 2.397.673.898-.014 1.588-.21 2.05-.586.44-.365.652-.82.652-1.39 0-.46-.152-.864-.45-1.205-.336-.345-.887-.786-1.63-1.307l-.428.01zM5.636 1.13c-.485.015-.878.206-1.2.587-.273.403-.403.854-.39 1.366 0 .703.21 1.444.618 2.205.193.345.444.64.747.875.29.227.623.343.992.343.472-.02.858-.187 1.175-.512.132-.204.23-.445.27-.68.027-.246.042-.47.042-.648 0-.767-.2-1.552-.593-2.334-.177-.36-.41-.656-.695-.88-.275-.197-.6-.307-.966-.32z"/></g></svg>