<svg xmlns="http://www.w3.org/2000/svg" width="16" height="16" viewBox="0 0 16 16"><path d="M7.99.625C3.92.625.617 3.927.617 8c0 3.124 1.944 5.793 4.687 6.868-.065-.584-.123-1.48.026-2.116.133-.575.864-3.666.864-3.666s-.22-.442-.22-1.095c0-1.024.593-1.79 1.333-1.79.63 0 .933.472.933 1.04 0 .632-.403 1.578-.61 2.454-.175.734.367 1.333 1.09 1.333 1.312 0 2.32-1.382 2.32-3.377 0-1.766-1.27-3-3.082-3-2.098 0-3.33 1.574-3.33 3.2 0 .634.244 1.314.55 1.683.06.073.068.137.05.21-.056.234-.18.735-.205.838-.032.136-.107.165-.247.1-.92-.43-1.497-1.776-1.497-2.857 0-2.326 1.69-4.463 4.872-4.463 2.558 0 4.547 1.823 4.547 4.26 0 2.54-1.604 4.586-3.828 4.586-.747 0-1.45-.388-1.69-.847l-.46 1.752c-.166.64-.615 1.444-.916 1.933.69.214 1.423.33 2.184.33 4.073 0 7.375-3.303 7.375-7.376S12.065.624 7.99.624z"/></svg>